<?xml version="1.0" standalone="no"?>
<!DOCTYPE svg PUBLIC "-//W3C//DTD SVG 20010904//EN"
 "http://www.w3.org/TR/2001/REC-SVG-20010904/DTD/svg10.dtd">
<svg version="1.0" xmlns="http://www.w3.org/2000/svg"
 width="128.000000pt" height="128.000000pt" viewBox="0 0 128.000000 128.000000"
 preserveAspectRatio="xMidYMid meet">

<g transform="translate(0.000000,128.000000) scale(0.100000,-0.100000)"
fill="#000000" stroke="none">
<path d="M510 1224 c-223 -48 -408 -236 -456 -464 -42 -199 32 -424 184 -560
238 -212 598 -203 822 20 117 117 173 258 173 430 -1 376 -352 654 -723 574z
m187 -35 c24 -24 2 -39 -57 -39 -60 0 -76 9 -66 35 7 18 106 21 123 4z m-169
-31 c4 -23 -102 -58 -120 -40 -15 15 0 32 45 49 42 16 71 12 75 -9z m293 11
c47 -16 67 -35 51 -51 -19 -19 -122 17 -122 43 0 22 21 24 71 8z m-454 -79 c3
-19 -84 -83 -103 -76 -26 10 -17 26 35 69 35 29 64 32 68 7z m618 -13 c27 -23
37 -39 32 -50 -3 -9 -10 -17 -15 -17 -19 0 -92 65 -92 82 0 28 33 22 75 -15z
m-749 -101 c5 -14 -51 -106 -65 -106 -5 0 -14 6 -20 13 -8 10 -3 25 19 60 29
47 56 60 66 33z m870 -31 c25 -43 27 -75 5 -75 -14 0 -71 85 -71 104 0 34 39
16 66 -29z m-418 -31 c48 -20 89 -59 102 -99 9 -28 17 -33 51 -38 86 -11 156
-105 146 -194 -6 -60 -46 -116 -101 -142 -42 -21 -56 -22 -270 -19 -209 3
-227 4 -252 24 -47 35 -67 70 -72 126 -3 44 0 59 20 88 29 42 83 80 114 80 19
0 24 5 24 24 0 61 40 117 105 147 49 23 84 24 133 3z m-540 -86 c7 -9 6 -28
-2 -63 -11 -40 -18 -51 -36 -53 -21 -4 -22 -1 -17 35 6 48 24 93 36 93 4 0 13
-6 19 -12z m1029 -47 c15 -56 8 -79 -19 -68 -15 5 -42 103 -32 118 15 24 38 1
51 -50z m16 -192 c-7 -44 -12 -54 -28 -54 -18 0 -20 6 -16 60 3 63 17 83 39
61 11 -10 12 -27 5 -67z m-1063 14 c6 -60 4 -73 -16 -73 -18 0 -34 40 -34 84
0 37 7 48 30 44 10 -2 17 -19 20 -55z m40 -160 c23 -52 23 -78 0 -78 -19 0
-64 89 -56 110 11 29 35 15 56 -32z m995 37 c10 -16 -43 -122 -57 -118 -21 7
-20 31 1 81 19 44 42 59 56 37z m-897 -191 c35 -40 39 -54 18 -62 -9 -4 -31
12 -56 39 -33 36 -39 48 -30 59 15 18 27 11 68 -36z m810 27 c5 -23 -65 -96
-84 -89 -24 9 -15 36 23 75 39 40 56 44 61 14z m-678 -125 c47 -28 58 -53 27
-59 -18 -4 -107 43 -107 56 0 10 22 32 30 31 3 0 25 -13 50 -28z m545 3 c0
-22 -78 -69 -100 -60 -27 10 -15 31 33 58 52 30 67 30 67 2z m-372 -60 c42 -7
54 -19 38 -38 -13 -16 -110 -4 -122 16 -11 17 10 40 30 34 9 -3 33 -8 54 -12z
m214 0 c8 -22 -6 -33 -59 -42 -84 -16 -95 25 -12 45 66 15 64 15 71 -3z"/>
</g>
</svg>
